<svg id="Capa_1" enable-background="new 0 0 512 512" height="512" viewBox="0 0 512 512" width="512" xmlns="http://www.w3.org/2000/svg"><g><path d="m475.89 334.771c-15.909 42.776-44.103 79.384-81.535 105.864-38.252 27.061-83.331 41.365-130.363 41.365-60.367 0-117.121-23.508-159.806-66.194-42.686-42.686-66.194-99.439-66.194-159.806s23.508-117.12 66.194-159.806c39.13-39.131 90.086-62.13 144.806-65.692v56.167c-86.738 7.62-155 80.647-155 169.331 0 93.738 76.262 170 170 170v-30c-77.196 0-140-62.804-140-140 0-72.129 54.831-131.686 125-139.195v73.909c-29.743 6.832-52 33.5-52 65.286 0 36.944 30.056 67 67 67s67-30.056 67-67c0-31.787-22.257-58.454-52-65.286v-190.714h-30v.447c-62.739 3.601-121.221 29.735-166.019 74.533-48.353 48.353-74.981 112.64-74.981 181.02s26.628 132.667 74.981 181.02c48.351 48.351 112.639 74.98 181.019 74.98 53.272 0 104.342-16.208 147.689-46.873 42.38-29.98 74.306-71.44 92.327-119.898zm-174.898-78.771c0 20.401-16.598 37-37 37s-37-16.599-37-37 16.598-37 37-37 37 16.599 37 37z"/><path d="m358.492 343h30v30h-30z"/><path d="m422.992 214h30v30h-30z"/><path d="m356.992 116h30v30h-30z"/></g></svg>